<svg xmlns="http://www.w3.org/2000/svg" width="54.149" height="33.516" viewBox="0 0 54.149 33.516">
  <g id="Group_118" data-name="Group 118" transform="translate(-226.623 -341.989)">
    <path id="Path_361" data-name="Path 361" d="M311.013,342.081c-.177.027-.347.679-.689,1.019-.251.245-.563.23-.73.533-.063.113-.043.307-.114.492-.14.371-.632.4-.632.809,0,.437.41.52.767.831.279.249.305.421.643.543.288.1.717-.223,1.1-.107.317.094.62.162.692.487.063.3,0,.765-.388.711a4.209,4.209,0,0,0-1.38-.131c-.833.1-1.782.367-1.875,1.294a1.066,1.066,0,0,0,1.21,1.006c.428-.085.226-.59.459-.835.306-.314,2.038,1.1,3.648,1.1a2.1,2.1,0,0,0,1.683-.7c.047-.04.1-.126.177-.131a.631.631,0,0,1,.227.1c1.3,1.042,2.277,3.133,7.043,3.158a3.214,3.214,0,0,1,2.058.892,5.646,5.646,0,0,1,1.2,2.127,11.353,11.353,0,0,0,2.628,3.72c.071.07,1.138.9,1.224.962a.517.517,0,0,1,.065.3c-.031.791-.147,3.089,1.567,3.193.419.021.309-.274.309-.475a2.4,2.4,0,0,1,.137-1.208c.289-.563-.612-.823-.586-2.042.019-.909-.745-.754-1.131-1.446a1.871,1.871,0,0,1-.408-1.1,9.5,9.5,0,0,0-.924-5.021c-.263-.336-.48-.47-.24-.626a4.4,4.4,0,0,0,1.754-1.823c.76-1.788,1.444-3.42,2.387-4.139a7.009,7.009,0,0,1,.975-.655,6.4,6.4,0,0,0,1.6-.915,1.425,1.425,0,0,0,.336-1.714c-.482-.615-1.316-.127-1.684.091-2.629,1.56-3.016,4.313-3.927,5.893a4.244,4.244,0,0,1-2.964,2.267,5.265,5.265,0,0,1-2.495-.475,12.58,12.58,0,0,1-3.465-2.283c-.555-.429-4.866-4.661-8.358-4.833,0,0-.434-.868-.543-.883-.255-.032-.517.518-.7.582s-.473-.6-.651-.568Z" transform="translate(-55.205)" fill="#1d1a1a" fill-rule="evenodd"/>
    <path id="Path_362" data-name="Path 362" d="M260.4,396.091a.622.622,0,0,1-.608-.611V384.585H256.2v12.009a1.067,1.067,0,0,0,1.062,1.069h6.276a1.063,1.063,0,0,0,1.06-1.069V384.585H261.01l0,10.895a.623.623,0,0,1-.61.611Z" transform="translate(-19.965 -28.754)" fill="#1d1a1a" fill-rule="evenodd"/>
    <path id="Path_363" data-name="Path 363" d="M292.4,384.585h-5.434a1.169,1.169,0,0,0-1.167,1.172v11.905h3.594v-10.92a.61.61,0,0,1,1.22-.009v10.93h3.579v-10.93a.609.609,0,0,1,1.217.009v10.92H299V385.757a1.17,1.17,0,0,0-1.168-1.172Z" transform="translate(-39.944 -28.754)" fill="#1d1a1a" fill-rule="evenodd"/>
    <path id="Path_364" data-name="Path 364" d="M233.839,394.376h-3.627v3.286h-3.589V384.585h7.239a1.159,1.159,0,0,1,1.154,1.178V393.2a1.176,1.176,0,0,1-1.177,1.179Zm-2.409-7.611a.615.615,0,0,0-.608-.623h-.61v6.615h.61a.607.607,0,0,0,.608-.615v-5.378Z" transform="translate(0 -28.754)" fill="#1d1a1a" fill-rule="evenodd"/>
    <path id="Path_365" data-name="Path 365" d="M362.652,416.716a1.6,1.6,0,1,1-1.62-1.608,1.6,1.6,0,0,1,1.62,1.608Zm-1.616-1.374a1.348,1.348,0,1,0,.022,0Z" transform="translate(-89.664 -49.358)" fill="#1d1a1a" fill-rule="evenodd"/>
    <path id="Path_366" data-name="Path 366" d="M363.95,419.074h-.429l-.551-.733v.733h-.349V417.22h.367c.5,0,.766.188.766.55a.54.54,0,0,1-.376.519l-.026.009.6.775Zm-.919-1.034c.249,0,.381-.088.381-.265,0-.158-.127-.239-.37-.239h-.072v.5Z" transform="translate(-91.803 -50.783)" fill="#1d1a1a" fill-rule="evenodd"/>
    <path id="Path_367" data-name="Path 367" d="M334.983,397.663V394.38h-1.22v3.283h-3.587V385.757a1.169,1.169,0,0,1,1.167-1.172h6.06a1.169,1.169,0,0,1,1.168,1.172v11.905Zm0-4.9v-6.022a.61.61,0,0,0-1.22.009v6.013Z" transform="translate(-69.901 -28.754)" fill="#1d1a1a" fill-rule="evenodd"/>
    <path id="Path_368" data-name="Path 368" d="M226.933,437.538v-3.592h.4v.337a.985.985,0,0,1,.321-.3.881.881,0,0,1,.433-.1,1.031,1.031,0,0,1,.587.171,1.045,1.045,0,0,1,.384.484,1.752,1.752,0,0,1,.13.684,1.725,1.725,0,0,1-.144.718,1.085,1.085,0,0,1-.989.659.831.831,0,0,1-.395-.093.892.892,0,0,1-.287-.235v1.264Zm.4-2.279a1.134,1.134,0,0,0,.2.742.624.624,0,0,0,.492.239.637.637,0,0,0,.5-.249,1.176,1.176,0,0,0,.209-.769,1.149,1.149,0,0,0-.2-.744.615.615,0,0,0-.487-.247.635.635,0,0,0-.5.263,1.178,1.178,0,0,0-.216.765Z" transform="translate(-0.209 -62.033)" fill="#1d1a1a" fill-rule="evenodd"/>
    <path id="Path_369" data-name="Path 369" d="M244.891,436.665v-.382a.951.951,0,0,1-.825.44,1.058,1.058,0,0,1-.429-.087.708.708,0,0,1-.3-.221.825.825,0,0,1-.136-.327,2.283,2.283,0,0,1-.027-.411v-1.609h.44v1.44a2.606,2.606,0,0,0,.027.465.467.467,0,0,0,.176.273.549.549,0,0,0,.333.1.724.724,0,0,0,.371-.1.562.562,0,0,0,.246-.276,1.383,1.383,0,0,0,.072-.508v-1.392h.44v2.6Z" transform="translate(-11.176 -62.156)" fill="#1d1a1a" fill-rule="evenodd"/>
    <path id="Path_370" data-name="Path 370" d="M259.487,436.542v-2.6h.393v.364a.928.928,0,0,1,.326-.306.913.913,0,0,1,.462-.117.848.848,0,0,1,.473.12.636.636,0,0,1,.261.335.934.934,0,0,1,.8-.455.792.792,0,0,1,.595.215.915.915,0,0,1,.208.659v1.783h-.437v-1.636a1.216,1.216,0,0,0-.043-.381.379.379,0,0,0-.155-.187.49.49,0,0,0-.265-.071.613.613,0,0,0-.455.183.8.8,0,0,0-.181.583v1.509h-.44v-1.687a.743.743,0,0,0-.108-.441.408.408,0,0,0-.352-.147.634.634,0,0,0-.343.1.55.55,0,0,0-.229.286,1.611,1.611,0,0,0-.071.543v1.347Z" transform="translate(-22.184 -62.033)" fill="#1d1a1a" fill-rule="evenodd"/>
    <path id="Path_371" data-name="Path 371" d="M281.415,436.222a1.674,1.674,0,0,1-.471.294,1.368,1.368,0,0,1-.486.085.945.945,0,0,1-.658-.209.693.693,0,0,1-.229-.534.7.7,0,0,1,.087-.349.716.716,0,0,1,.227-.253,1.078,1.078,0,0,1,.317-.144,3.114,3.114,0,0,1,.391-.066,4,4,0,0,0,.785-.152c0-.06,0-.1,0-.114a.484.484,0,0,0-.125-.379.732.732,0,0,0-.5-.149.781.781,0,0,0-.459.109.668.668,0,0,0-.219.386l-.43-.059a1.07,1.07,0,0,1,.193-.446.843.843,0,0,1,.389-.262,1.733,1.733,0,0,1,.59-.092,1.569,1.569,0,0,1,.54.078.72.72,0,0,1,.306.2.7.7,0,0,1,.137.3,2.536,2.536,0,0,1,.022.406v.587a6.113,6.113,0,0,0,.028.776.977.977,0,0,0,.111.312h-.46a.927.927,0,0,1-.088-.32Zm-.037-.984a3.188,3.188,0,0,1-.719.167,1.655,1.655,0,0,0-.384.088.385.385,0,0,0-.1.646.575.575,0,0,0,.39.117.908.908,0,0,0,.453-.111.687.687,0,0,0,.291-.3,1.056,1.056,0,0,0,.071-.44v-.162Z" transform="translate(-35.741 -62.033)" fill="#1d1a1a" fill-rule="evenodd"/>
    <path id="Path_372" data-name="Path 372" d="M296.69,441.018v-.5h.5v.5Z" transform="translate(-47.297 -66.509)" fill="#1d1a1a" fill-rule="evenodd"/>
    <path id="Path_373" data-name="Path 373" d="M309.708,435.591l.433.057a1.119,1.119,0,0,1-.363.7,1.057,1.057,0,0,1-.718.253,1.115,1.115,0,0,1-.857-.348,1.413,1.413,0,0,1-.325-1,1.813,1.813,0,0,1,.139-.736.975.975,0,0,1,.425-.473,1.261,1.261,0,0,1,.62-.158,1.077,1.077,0,0,1,.692.215.983.983,0,0,1,.345.608l-.428.066a.714.714,0,0,0-.216-.394.562.562,0,0,0-.376-.132.683.683,0,0,0-.541.239,1.131,1.131,0,0,0-.208.754,1.17,1.17,0,0,0,.2.761.654.654,0,0,0,.524.237.617.617,0,0,0,.433-.16.786.786,0,0,0,.22-.489Z" transform="translate(-54.85 -62.033)" fill="#1d1a1a" fill-rule="evenodd"/>
    <path id="Path_374" data-name="Path 374" d="M323.2,435.243a1.336,1.336,0,0,1,.4-1.069,1.208,1.208,0,0,1,.816-.289,1.164,1.164,0,0,1,.876.351,1.332,1.332,0,0,1,.34.969,1.717,1.717,0,0,1-.151.789,1.064,1.064,0,0,1-.437.447,1.277,1.277,0,0,1-.628.159,1.168,1.168,0,0,1-.882-.35,1.4,1.4,0,0,1-.336-1.008Zm.453,0a1.1,1.1,0,0,0,.218.747.724.724,0,0,0,1.094,0,1.135,1.135,0,0,0,.217-.761,1.072,1.072,0,0,0-.219-.73.726.726,0,0,0-1.092,0,1.1,1.1,0,0,0-.218.745Z" transform="translate(-65.192 -62.033)" fill="#1d1a1a" fill-rule="evenodd"/>
    <path id="Path_375" data-name="Path 375" d="M339.982,436.542v-2.6h.393v.364A.927.927,0,0,1,340.7,434a.912.912,0,0,1,.462-.117.848.848,0,0,1,.473.12.636.636,0,0,1,.261.335.934.934,0,0,1,.8-.455.791.791,0,0,1,.595.215.914.914,0,0,1,.208.659v1.783h-.437v-1.636a1.208,1.208,0,0,0-.043-.381.379.379,0,0,0-.155-.187.49.49,0,0,0-.265-.071.614.614,0,0,0-.455.183.8.8,0,0,0-.181.583v1.509h-.44v-1.687a.743.743,0,0,0-.108-.441.407.407,0,0,0-.352-.147.634.634,0,0,0-.343.1.552.552,0,0,0-.229.286,1.611,1.611,0,0,0-.071.543v1.347Z" transform="translate(-76.521 -62.033)" fill="#1d1a1a" fill-rule="evenodd"/>
  </g>
</svg>
