<svg id="Group_328" data-name="Group 328" xmlns="http://www.w3.org/2000/svg" width="20.617" height="13.315" viewBox="0 0 20.617 13.315">
  <g id="Group_96" data-name="Group 96" transform="translate(0)">
    <circle id="Ellipse_193" data-name="Ellipse 193" cx="1.412" cy="1.412" r="1.412" transform="translate(0 5.999) rotate(-80.782)" fill="#1d1a1a"/>
    <circle id="Ellipse_194" data-name="Ellipse 194" cx="1.412" cy="1.412" r="1.412" transform="translate(0.046 7) rotate(-7.018)" fill="#1d1a1a"/>
    <circle id="Ellipse_195" data-name="Ellipse 195" cx="1.412" cy="1.412" r="1.412" transform="translate(3.119 4.846) rotate(-45)" fill="#1d1a1a"/>
    <circle id="Ellipse_196" data-name="Ellipse 196" cx="1.412" cy="1.412" r="1.412" transform="matrix(0.982, -0.189, 0.189, 0.982, 3.442, 7.107)" fill="#1d1a1a"/>
    <circle id="Ellipse_197" data-name="Ellipse 197" cx="1.412" cy="1.412" r="1.412" transform="translate(6.972 3.6) rotate(-7.018)" fill="#1d1a1a"/>
    <circle id="Ellipse_198" data-name="Ellipse 198" cx="1.412" cy="1.412" r="1.412" transform="matrix(0.851, -0.526, 0.526, 0.851, 6.61, 7.758)" fill="#1d1a1a"/>
    <path id="Path_348" data-name="Path 348" d="M3715.068,2878.341a1.412,1.412,0,1,0-1.413,1.413A1.412,1.412,0,0,0,3715.068,2878.341Z" transform="translate(-3701.63 -2876.929)" fill="#1d1a1a"/>
    <circle id="Ellipse_199" data-name="Ellipse 199" cx="1.412" cy="1.412" r="1.412" transform="matrix(0.995, -0.099, 0.099, 0.995, 10.478, 3.562)" fill="#1d1a1a"/>
    <circle id="Ellipse_200" data-name="Ellipse 200" cx="1.412" cy="1.412" r="1.412" transform="matrix(0.973, -0.23, 0.23, 0.973, 10.32, 7.175)" fill="#1d1a1a"/>
    <circle id="Ellipse_201" data-name="Ellipse 201" cx="1.412" cy="1.412" r="1.412" transform="matrix(0.973, -0.23, 0.23, 0.973, 10.32, 10.566)" fill="#1d1a1a"/>
    <circle id="Ellipse_202" data-name="Ellipse 202" cx="1.412" cy="1.412" r="1.412" transform="translate(13.976 3.536) rotate(-4.731)" fill="#1d1a1a"/>
    <circle id="Ellipse_203" data-name="Ellipse 203" cx="1.412" cy="1.412" r="1.412" transform="translate(13.839 7.107) rotate(-10.901)" fill="#1d1a1a"/>
    <circle id="Ellipse_204" data-name="Ellipse 204" cx="1.412" cy="1.412" r="1.412" transform="matrix(0.526, -0.851, 0.851, 0.526, 13.532, 8.675)" fill="#1d1a1a"/>
    <circle id="Ellipse_205" data-name="Ellipse 205" cx="1.412" cy="1.412" r="1.412" transform="matrix(0.526, -0.851, 0.851, 0.526, 16.729, 7.06)" fill="#1d1a1a"/>
  </g>
</svg>
