<svg xmlns="http://www.w3.org/2000/svg" width="20.105" height="11.375" viewBox="0 0 20.105 11.375">
  <g id="arrow" transform="translate(-3273.145 -2482.734)">
    <circle id="Ellipse_141" data-name="Ellipse 141" cx="0.85" cy="0.85" r="0.85" transform="translate(3273.145 2489.371)" fill="#fff"/>
    <circle id="Ellipse_142" data-name="Ellipse 142" cx="0.85" cy="0.85" r="0.85" transform="translate(3275.286 2489.369) rotate(-76.718)" fill="#fff"/>
    <circle id="Ellipse_143" data-name="Ellipse 143" cx="0.85" cy="0.85" r="0.85" transform="translate(3277.599 2487.613) rotate(-76.718)" fill="#fff"/>
    <circle id="Ellipse_144" data-name="Ellipse 144" cx="0.85" cy="0.85" r="0.85" transform="translate(3279.912 2485.708) rotate(-76.718)" fill="#fff"/>
    <circle id="Ellipse_145" data-name="Ellipse 145" cx="0.85" cy="0.85" r="0.85" transform="translate(3291.206 2489.589) rotate(-13.283)" fill="#fff"/>
    <circle id="Ellipse_146" data-name="Ellipse 146" cx="0.85" cy="0.85" r="0.85" transform="translate(3288.714 2488.737) rotate(-45)" fill="#fff"/>
    <circle id="Ellipse_147" data-name="Ellipse 147" cx="0.85" cy="0.85" r="0.85" transform="translate(3286.752 2486.132)" fill="#fff"/>
    <circle id="Ellipse_148" data-name="Ellipse 148" cx="0.85" cy="0.85" r="0.85" transform="translate(3284.439 2484.226)" fill="#fff"/>
    <circle id="Ellipse_149" data-name="Ellipse 149" cx="0.85" cy="0.85" r="0.85" transform="translate(3282.089 2483.124) rotate(-13.283)" fill="#fff"/>
    <circle id="Ellipse_150" data-name="Ellipse 150" cx="0.85" cy="0.85" r="0.85" transform="translate(3273.145 2492.237)" fill="#fff"/>
    <circle id="Ellipse_151" data-name="Ellipse 151" cx="0.85" cy="0.85" r="0.85" transform="translate(3275.198 2491.143) rotate(-22.5)" fill="#fff"/>
    <circle id="Ellipse_152" data-name="Ellipse 152" cx="0.85" cy="0.85" r="0.85" transform="translate(3277.51 2489.388) rotate(-22.5)" fill="#fff"/>
    <circle id="Ellipse_153" data-name="Ellipse 153" cx="0.85" cy="0.85" r="0.85" transform="translate(3279.912 2488.574) rotate(-76.718)" fill="#fff"/>
    <circle id="Ellipse_154" data-name="Ellipse 154" cx="0.85" cy="0.85" r="0.85" transform="translate(3291.206 2492.455) rotate(-13.283)" fill="#fff"/>
    <circle id="Ellipse_155" data-name="Ellipse 155" cx="0.85" cy="0.85" r="0.85" transform="translate(3288.94 2490.9) rotate(-9.217)" fill="#fff"/>
    <circle id="Ellipse_156" data-name="Ellipse 156" cx="0.85" cy="0.85" r="0.85" transform="translate(3286.752 2488.998)" fill="#fff"/>
    <circle id="Ellipse_157" data-name="Ellipse 157" cx="0.85" cy="0.85" r="0.85" transform="translate(3284.439 2487.093)" fill="#fff"/>
    <circle id="Ellipse_158" data-name="Ellipse 158" cx="0.85" cy="0.85" r="0.85" transform="translate(3281.91 2486.622) rotate(-45)" fill="#fff"/>
  </g>
</svg>
