<svg xmlns="http://www.w3.org/2000/svg" width="17.692" height="10.009" viewBox="0 0 17.692 10.009">
  <g id="arrow" transform="translate(-3273.145 -2482.734)">
    <circle id="Ellipse_141" data-name="Ellipse 141" cx="0.748" cy="0.748" r="0.748" transform="translate(3273.145 2488.574)" fill="#1d1a1a"/>
    <circle id="Ellipse_142" data-name="Ellipse 142" cx="0.748" cy="0.748" r="0.748" transform="translate(3275.029 2488.572) rotate(-76.718)" fill="#1d1a1a"/>
    <circle id="Ellipse_143" data-name="Ellipse 143" cx="0.748" cy="0.748" r="0.748" transform="translate(3277.064 2487.027) rotate(-76.718)" fill="#1d1a1a"/>
    <circle id="Ellipse_144" data-name="Ellipse 144" cx="0.748" cy="0.748" r="0.748" transform="translate(3279.1 2485.351) rotate(-76.718)" fill="#1d1a1a"/>
    <circle id="Ellipse_145" data-name="Ellipse 145" cx="0.748" cy="0.748" r="0.748" transform="translate(3289.037 2488.766) rotate(-13.283)" fill="#1d1a1a"/>
    <circle id="Ellipse_146" data-name="Ellipse 146" cx="0.748" cy="0.748" r="0.748" transform="translate(3286.844 2488.016) rotate(-45)" fill="#1d1a1a"/>
    <circle id="Ellipse_147" data-name="Ellipse 147" cx="0.748" cy="0.748" r="0.748" transform="translate(3285.118 2485.724)" fill="#1d1a1a"/>
    <circle id="Ellipse_148" data-name="Ellipse 148" cx="0.748" cy="0.748" r="0.748" transform="translate(3283.083 2484.047)" fill="#1d1a1a"/>
    <circle id="Ellipse_149" data-name="Ellipse 149" cx="0.748" cy="0.748" r="0.748" transform="translate(3281.015 2483.077) rotate(-13.283)" fill="#1d1a1a"/>
    <circle id="Ellipse_150" data-name="Ellipse 150" cx="0.748" cy="0.748" r="0.748" transform="translate(3273.145 2491.096)" fill="#1d1a1a"/>
    <circle id="Ellipse_151" data-name="Ellipse 151" cx="0.748" cy="0.748" r="0.748" transform="translate(3274.951 2490.134) rotate(-22.5)" fill="#1d1a1a"/>
    <circle id="Ellipse_152" data-name="Ellipse 152" cx="0.748" cy="0.748" r="0.748" transform="translate(3276.986 2488.589) rotate(-22.5)" fill="#1d1a1a"/>
    <circle id="Ellipse_153" data-name="Ellipse 153" cx="0.748" cy="0.748" r="0.748" transform="translate(3279.1 2487.873) rotate(-76.718)" fill="#1d1a1a"/>
    <circle id="Ellipse_154" data-name="Ellipse 154" cx="0.748" cy="0.748" r="0.748" transform="translate(3289.037 2491.288) rotate(-13.283)" fill="#1d1a1a"/>
    <circle id="Ellipse_155" data-name="Ellipse 155" cx="0.748" cy="0.748" r="0.748" transform="translate(3287.044 2489.92) rotate(-9.217)" fill="#1d1a1a"/>
    <circle id="Ellipse_156" data-name="Ellipse 156" cx="0.748" cy="0.748" r="0.748" transform="translate(3285.118 2488.246)" fill="#1d1a1a"/>
    <circle id="Ellipse_157" data-name="Ellipse 157" cx="0.748" cy="0.748" r="0.748" transform="translate(3283.083 2486.569)" fill="#1d1a1a"/>
    <circle id="Ellipse_158" data-name="Ellipse 158" cx="0.748" cy="0.748" r="0.748" transform="translate(3280.857 2486.155) rotate(-45)" fill="#1d1a1a"/>
  </g>
</svg>
