<svg id="Group_96" data-name="Group 96" xmlns="http://www.w3.org/2000/svg" width="24.5" height="15.823" viewBox="0 0 24.5 15.823">
  <circle id="Ellipse_193" data-name="Ellipse 193" cx="1.541" cy="1.541" r="1.541" transform="translate(0 6.958) rotate(-80.782)" fill="#fff"/>
  <circle id="Ellipse_194" data-name="Ellipse 194" cx="1.541" cy="1.541" r="1.541" transform="translate(0.05 8.485) rotate(-7.018)" fill="#fff"/>
  <circle id="Ellipse_195" data-name="Ellipse 195" cx="1.541" cy="1.541" r="1.541" transform="translate(3.779 5.684) rotate(-45)" fill="#fff"/>
  <circle id="Ellipse_196" data-name="Ellipse 196" cx="1.541" cy="1.541" r="1.541" transform="matrix(0.982, -0.189, 0.189, 0.982, 4.154, 8.604)" fill="#fff"/>
  <circle id="Ellipse_197" data-name="Ellipse 197" cx="1.541" cy="1.541" r="1.541" transform="translate(8.407 4.342) rotate(-7.018)" fill="#fff"/>
  <circle id="Ellipse_198" data-name="Ellipse 198" cx="1.541" cy="1.541" r="1.541" transform="matrix(0.851, -0.526, 0.526, 0.851, 8.004, 9.325)" fill="#fff"/>
  <path id="Path_348" data-name="Path 348" d="M3715.327,2878.47a1.541,1.541,0,1,0-1.542,1.542A1.542,1.542,0,0,0,3715.327,2878.47Z" transform="translate(-3699.469 -2876.929)" fill="#fff"/>
  <circle id="Ellipse_199" data-name="Ellipse 199" cx="1.541" cy="1.541" r="1.541" transform="matrix(0.995, -0.099, 0.099, 0.995, 12.63, 4.302)" fill="#fff"/>
  <circle id="Ellipse_200" data-name="Ellipse 200" cx="1.541" cy="1.541" r="1.541" transform="matrix(0.973, -0.23, 0.23, 0.973, 12.462, 8.68)" fill="#fff"/>
  <circle id="Ellipse_201" data-name="Ellipse 201" cx="1.541" cy="1.541" r="1.541" transform="matrix(0.973, -0.23, 0.23, 0.973, 12.462, 12.823)" fill="#fff"/>
  <circle id="Ellipse_202" data-name="Ellipse 202" cx="1.541" cy="1.541" r="1.541" transform="translate(16.844 4.275) rotate(-4.731)" fill="#fff"/>
  <circle id="Ellipse_203" data-name="Ellipse 203" cx="1.541" cy="1.541" r="1.541" transform="translate(16.702 8.604) rotate(-10.901)" fill="#fff"/>
  <circle id="Ellipse_204" data-name="Ellipse 204" cx="1.541" cy="1.541" r="1.541" transform="matrix(0.526, -0.851, 0.851, 0.526, 16.385, 10.327)" fill="#fff"/>
  <circle id="Ellipse_205" data-name="Ellipse 205" cx="1.541" cy="1.541" r="1.541" transform="matrix(0.526, -0.851, 0.851, 0.526, 20.257, 8.343)" fill="#fff"/>
</svg>
