<svg xmlns="http://www.w3.org/2000/svg" xmlns:xlink="http://www.w3.org/1999/xlink" width="110" height="34.968" viewBox="0 0 110 34.968">
  <defs>
    <clipPath id="clip-path">
      <path id="Path_702" data-name="Path 702" d="M299.166,305.729,287.934,339.4l27.517.307V305.675S299.166,305.7,299.166,305.729Z" transform="translate(-287.934 -305.675)" fill="#5d5555" clip-rule="evenodd"/>
    </clipPath>
  </defs>
  <g id="Group_382" data-name="Group 382" transform="translate(-18 -43.032)">
    <g id="VE_Logo" data-name="VE Logo" transform="translate(18 40.032)">
      <g id="Group_178" data-name="Group 178" transform="translate(0 3)">
        <path id="Path_700" data-name="Path 700" d="M208.423,320.873l-9.159,27.476a3.377,3.377,0,0,1-2.7,2.272,4.72,4.72,0,0,0,1.138-1.844l.145-.431L207,320.873Zm-2.851,0-9.159,27.476a3.377,3.377,0,0,1-2.7,2.272,4.72,4.72,0,0,0,1.138-1.844l.145-.431,9.158-27.473Zm-12.04,27.571a3.377,3.377,0,0,1-2.669,2.174A4.718,4.718,0,0,0,192,348.774c2.848-8.543,9.3-27.9,9.3-27.9h1.425l-9.191,27.571Zm-4.107,1.614a3.372,3.372,0,0,1-1.281-1.708l-9.159-27.476h1.421l9.158,27.473.145.431a4.733,4.733,0,0,0,.324.749,3.377,3.377,0,0,1-.608.532Zm1.432-2.12-9.021-27.064h1.421l8.311,24.933-.711,2.131Zm1.425-4.275-7.6-22.789h1.425l6.882,20.657-.711,2.132Z" transform="translate(-178.984 -318.01)" fill="#5d5555" fill-rule="evenodd"/>
        <g id="Group_177" data-name="Group 177" transform="translate(20.523)">
          <g id="Group_176" data-name="Group 176" clip-path="url(#clip-path)">
            <path id="Path_701" data-name="Path 701" d="M320.947,322.187h10.2v-1.352h-8.172a3.377,3.377,0,0,0-2.029,1.352m-.616,2.734a3.367,3.367,0,0,1,.443-.029h10.374v-1.352H320.774q-.2,0-.394.016a3.386,3.386,0,0,0-.049.576Zm0,2.7a3.367,3.367,0,0,1,.443-.029h10.374v-1.352H320.774q-.223,0-.443.021Zm0,4.015H329.8v1.352h-9.465Zm0,2.7H329.8V335.7h-9.465Zm0,2.7H329.8V338.4h-9.465Zm0,6.732a3.41,3.41,0,0,0,.443.029h10.374v1.352H320.774q-.223,0-.443-.021Zm0,2.7a3.373,3.373,0,0,0,.443.029h10.374v1.352H320.774q-.2,0-.394-.016a3.389,3.389,0,0,1-.049-.576Zm.616,2.734h10.2v1.352h-8.172a3.375,3.375,0,0,1-2.029-1.352Zm-3.32-1.944V324.132a3.376,3.376,0,0,1,2.7-3.309,4.728,4.728,0,0,0-1.35,3.309v23.143a4.728,4.728,0,0,0,1.35,3.309,3.376,3.376,0,0,1-2.7-3.309Zm-1.352,0a4.729,4.729,0,0,0,1.35,3.309,3.377,3.377,0,0,1-2.7-3.309V324.132a3.377,3.377,0,0,1,2.7-3.309,4.728,4.728,0,0,0-1.35,3.309Zm-4.056.042V324.09a3.376,3.376,0,0,1,2.7-3.267,4.729,4.729,0,0,0-1.35,3.309v23.143a4.729,4.729,0,0,0,1.35,3.309,3.376,3.376,0,0,1-2.7-3.267Z" transform="translate(-307.644 -317.97)" fill="#5d5555" fill-rule="evenodd"/>
          </g>
        </g>
      </g>
    </g>
    <text id="VISITOR_S_END" data-name="VISITOR’S 
END" transform="translate(66 51)" fill="#989395" font-size="13" font-family="HelveticaNeue-CondensedBold, Helvetica Neue" font-weight="700"><tspan x="0" y="12">VISITOR’S </tspan><tspan x="0" y="24">END</tspan></text>
  </g>
</svg>
